<svg xmlns="http://www.w3.org/2000/svg" version="1.1" xmlns:xlink="http://www.w3.org/1999/xlink" xmlns:svgjs="http://svgjs.dev/svgjs" width="1500" height="1500" viewBox="0 0 1500 1500"><rect width="1500" height="1500" fill="#000000"></rect><g transform="matrix(0.6666666666666666,0,0,0.6666666666666666,249.39393939393938,438.58569500674764)"><svg viewBox="0 0 396 247" data-background-color="#ffffff" preserveAspectRatio="xMidYMid meet" height="935" width="1500" xmlns="http://www.w3.org/2000/svg" xmlns:xlink="http://www.w3.org/1999/xlink"><g id="tight-bounds" transform="matrix(1,0,0,1,0.2400000000000091,-0.09999999999999432)"><svg viewBox="0 0 395.52 247.2" height="247.2" width="395.52"><g><svg></svg></g><g><svg viewBox="0 0 395.52 247.2" height="247.2" width="395.52"><mask id="44a11cb5-20c9-4cdd-8240-64bb72249d0f"><rect width="395.52" height="247.2" fill="white"></rect><g transform="matrix(1,0,0,1,0,97.7266378066378)" id="clone"><svg viewBox="0 0 395.52 51.74672438672438" height="51.74672438672438" width="395.52"><g><svg viewBox="0 0 395.52 51.74672438672438" height="51.74672438672438" width="395.52"><g><svg viewBox="0 0 395.52 51.74672438672438" height="51.74672438672438" width="395.52"><g><svg viewBox="0 0 395.52 51.74672438672438" height="51.74672438672438" width="395.52"><g id="SvgjsG1191"><svg viewBox="0 0 395.52 51.74672438672438" height="51.74672438672438" width="395.52" id="SvgjsSvg1190"><g><svg viewBox="0 0 395.52 51.74672438672438" height="51.74672438672438" width="395.52"><g transform="matrix(1,0,0,1,0,0)"><svg width="395.52" viewBox="-2.25 -40.5 416.77 55.4" height="51.74672438672438" data-palette-color="#000000"><path d="M16.4-17.7L16.4-17.7 13.75-17.7 13.75-0.95 17-0.95 17 0 0.75 0 0.75-0.95 4-0.95 4-34.05 0.75-34.05 0.75-35 15.85-35Q22.35-35 25.08-34.33 27.8-33.65 28.9-32.7L28.9-32.7Q31.3-30.75 31.3-26.5 31.3-22.25 29.2-20.43 27.1-18.6 22.8-18.25L22.8-18.25 22.8-18.1Q26.85-17.55 28.45-15.7 30.05-13.85 30.05-9.5L30.05-9.5 30.05-6.85Q30.05-4.25 30.33-3.35 30.6-2.45 31.5-2.45 32.4-2.45 32.93-3.28 33.45-4.1 33.9-6.75L33.9-6.75 34.75-6.65Q34.2-2.4 32.83-0.95 31.45 0.5 27.35 0.5 23.25 0.5 21.53-1.43 19.8-3.35 19.8-8.65L19.8-8.65 19.8-12.3Q19.8-15.1 19.07-16.4 18.35-17.7 16.4-17.7ZM15.4-34.05L13.75-34.05 13.75-18.65 15.35-18.65Q18.2-18.65 19.58-20.4 20.95-22.15 20.95-26.1L20.95-26.1 20.95-27.55Q20.95-31.5 19.63-32.77 18.3-34.05 15.4-34.05L15.4-34.05ZM48.95 0.5Q42.5 0.5 39.27-2.83 36.05-6.15 36.05-12.08 36.05-18 39.67-21.15 43.3-24.3 48.9-24.3L48.9-24.3Q60.25-24.3 59.8-12.9L59.8-12.9 45.7-12.9 45.7-10.95Q45.7-6.05 46.95-3.55 48.2-1.05 51.3-1.05L51.3-1.05Q57.1-1.05 58.9-7.25L58.9-7.25 59.8-7.1Q58.85-3.5 56.37-1.5 53.9 0.5 48.95 0.5L48.95 0.5ZM45.75-16.35L45.75-13.9 50.9-13.9 50.9-16.35Q50.9-20.4 50.42-21.88 49.95-23.35 48.52-23.35 47.1-23.35 46.42-21.78 45.75-20.2 45.75-16.35L45.75-16.35ZM63.35-23.8L84.35-23.8 84.35-22.9 72.5-0.9 73.15-0.9Q77.35-0.9 79.75-3.1 82.15-5.3 83.5-10.25L83.5-10.25 84.2-10.25 83.4 0 62.4 0 62.4-0.75 74.45-22.9 73.9-22.9Q68.85-22.9 66.87-21.25 64.9-19.6 63.35-14.2L63.35-14.2 62.7-14.2 63.35-23.8ZM99.74 0.5Q93.29 0.5 90.07-2.83 86.84-6.15 86.84-12.08 86.84-18 90.47-21.15 94.09-24.3 99.69-24.3L99.69-24.3Q111.04-24.3 110.59-12.9L110.59-12.9 96.49-12.9 96.49-10.95Q96.49-6.05 97.74-3.55 98.99-1.05 102.09-1.05L102.09-1.05Q107.89-1.05 109.69-7.25L109.69-7.25 110.59-7.1Q109.64-3.5 107.17-1.5 104.69 0.5 99.74 0.5L99.74 0.5ZM96.54-16.35L96.54-13.9 101.69-13.9 101.69-16.35Q101.69-20.4 101.22-21.88 100.74-23.35 99.32-23.35 97.89-23.35 97.22-21.78 96.54-20.2 96.54-16.35L96.54-16.35ZM130.64-13.45Q130.64-18.6 130.14-20.38 129.64-22.15 128.19-22.15 126.74-22.15 125.59-20.28 124.44-18.4 124.44-15.25L124.44-15.25 124.44-6.1Q124.44-3.95 125.29-2.45 126.14-0.95 127.79-0.95 129.44-0.95 130.04-3.15 130.64-5.35 130.64-10.85L130.64-10.85 130.64-13.45ZM112.49-23.8L124.34-23.8 124.34-19.85Q126.29-24.3 131.24-24.3L131.24-24.3Q135.54-24.3 137.92-21.2 140.29-18.1 140.29-11.8 140.29-5.5 137.72-2.5 135.14 0.5 129.99 0.5L129.99 0.5Q127.59 0.5 126.39-0.1 125.19-0.7 124.44-1.95L124.44-1.95 124.44 11 130.89 11 130.89 11.9 112.39 11.9 112.39 11 115.14 11 115.14-22.9 112.49-22.9 112.49-23.8ZM144.29-7.15L144.29-7.15 144.29-22.9 141.54-22.9 141.54-23.8 144.29-23.8 144.29-30.25 153.59-32.55 153.59-23.8 160.09-23.8 160.09-22.9 153.59-22.9 153.59-6.05Q153.59-3.7 154.06-2.6 154.54-1.5 156.04-1.5 157.54-1.5 158.66-3 159.79-4.5 160.14-7.1L160.14-7.1 160.99-7Q160.59-3.55 158.79-1.53 156.99 0.5 152.84 0.5 148.69 0.5 146.49-1.15 144.29-2.8 144.29-7.15ZM174.64 0.5Q168.19 0.5 164.96-2.83 161.74-6.15 161.74-12.08 161.74-18 165.36-21.15 168.99-24.3 174.59-24.3L174.59-24.3Q185.94-24.3 185.49-12.9L185.49-12.9 171.39-12.9 171.39-10.95Q171.39-6.05 172.64-3.55 173.89-1.05 176.99-1.05L176.99-1.05Q182.79-1.05 184.59-7.25L184.59-7.25 185.49-7.1Q184.54-3.5 182.06-1.5 179.59 0.5 174.64 0.5L174.64 0.5ZM171.44-16.35L171.44-13.9 176.59-13.9 176.59-16.35Q176.59-20.4 176.11-21.88 175.64-23.35 174.21-23.35 172.79-23.35 172.11-21.78 171.44-20.2 171.44-16.35L171.44-16.35ZM219.03-34.05L216.28-34.05 216.28 0 209.28 0 192.13-32.35 192.13-0.95 194.88-0.95 194.88 0 188.03 0 188.03-0.95 190.78-0.95 190.78-34.05 188.03-34.05 188.03-35 201.83-35 214.93-9.9 214.93-34.05 212.18-34.05 212.18-35 219.03-35 219.03-34.05ZM233.43 0.5Q226.98 0.5 223.76-2.83 220.53-6.15 220.53-12.08 220.53-18 224.16-21.15 227.78-24.3 233.38-24.3L233.38-24.3Q244.73-24.3 244.28-12.9L244.28-12.9 230.18-12.9 230.18-10.95Q230.18-6.05 231.43-3.55 232.68-1.05 235.78-1.05L235.78-1.05Q241.58-1.05 243.38-7.25L243.38-7.25 244.28-7.1Q243.33-3.5 240.86-1.5 238.38 0.5 233.43 0.5L233.43 0.5ZM230.23-16.35L230.23-13.9 235.38-13.9 235.38-16.35Q235.38-20.4 234.91-21.88 234.43-23.35 233.01-23.35 231.58-23.35 230.91-21.78 230.23-20.2 230.23-16.35L230.23-16.35ZM248.58-7.15L248.58-7.15 248.58-22.9 245.83-22.9 245.83-23.8 248.58-23.8 248.58-30.25 257.88-32.55 257.88-23.8 264.38-23.8 264.38-22.9 257.88-22.9 257.88-6.05Q257.88-3.7 258.35-2.6 258.83-1.5 260.33-1.5 261.83-1.5 262.95-3 264.08-4.5 264.43-7.1L264.43-7.1 265.28-7Q264.88-3.55 263.08-1.53 261.28 0.5 257.13 0.5 252.98 0.5 250.78-1.15 248.58-2.8 248.58-7.15ZM267.53-23.8L288.53-23.8 288.53-22.9 276.68-0.9 277.33-0.9Q281.53-0.9 283.93-3.1 286.33-5.3 287.68-10.25L287.68-10.25 288.38-10.25 287.58 0 266.58 0 266.58-0.75 278.63-22.9 278.08-22.9Q273.03-22.9 271.05-21.25 269.08-19.6 267.53-14.2L267.53-14.2 266.88-14.2 267.53-23.8ZM310.22-22.9L308.37-22.9 308.37-23.8 321.27-23.8 321.27-22.9 319.22-22.9 323.72-6.05 328.17-22.9 324.72-22.9 324.72-23.8 331.47-23.8 331.47-22.9 329.37-22.9 323.37 0 316.52 0 312.17-15.35 307.47 0 300.77 0 293.37-22.9 291.12-22.9 291.12-23.8 306.27-23.8 306.27-22.9 303.27-22.9 307.87-5.9 311.47-17.6 310.22-22.9ZM344.37 0.5Q337.92 0.5 334.7-2.83 331.47-6.15 331.47-12.08 331.47-18 335.1-21.15 338.72-24.3 344.32-24.3L344.32-24.3Q355.67-24.3 355.22-12.9L355.22-12.9 341.12-12.9 341.12-10.95Q341.12-6.05 342.37-3.55 343.62-1.05 346.72-1.05L346.72-1.05Q352.52-1.05 354.32-7.25L354.32-7.25 355.22-7.1Q354.27-3.5 351.8-1.5 349.32 0.5 344.37 0.5L344.37 0.5ZM341.17-16.35L341.17-13.9 346.32-13.9 346.32-16.35Q346.32-20.4 345.85-21.88 345.37-23.35 343.95-23.35 342.52-23.35 341.85-21.78 341.17-20.2 341.17-16.35L341.17-16.35ZM373.72-22.4L373.72-22.4Q371.87-22.4 370.47-20 369.07-17.6 369.07-14.3L369.07-14.3 369.07-0.9 372.62-0.9 372.62 0 357.02 0 357.02-0.9 359.77-0.9 359.77-22.9 357.02-22.9 357.02-23.8 369.07-23.8 369.07-19Q369.72-21.55 371.57-22.93 373.42-24.3 375.77-24.3 378.12-24.3 379.59-22.98 381.07-21.65 381.07-19.23 381.07-16.8 379.97-15.5 378.87-14.2 376.59-14.2 374.32-14.2 373.24-15.7 372.17-17.2 372.97-19.85L372.97-19.85 374.77-19.85Q376.02-22.4 373.72-22.4ZM411.52 0L397.62 0 397.62-0.9 399.92-0.9 394.27-12.5 393.32-12.25 393.32-0.9 395.62-0.9 395.62 0 381.27 0 381.27-0.9 384.02-0.9 384.02-36.6 381.07-36.6 381.07-37.5 393.32-37.5 393.32-13.25 394.12-13.55 405.37-22.9 400.67-22.9 400.67-23.8 410.52-23.8 410.52-22.9 407.02-22.9 401.07-17.85 409.72-0.9 411.52-0.9 411.52 0Z" opacity="1" transform="matrix(1,0,0,1,0,0)" fill="black" class="wordmark-text-0" id="SvgjsPath1189" stroke-width="5" stroke="black" stroke-linejoin="round"></path></svg></g></svg></g></svg></g></svg></g><g></g></svg></g></svg></g></svg></g></mask><g mask="url(#44a11cb5-20c9-4cdd-8240-64bb72249d0f)"><g><path d="M188.359 120.466v0h-18.453v116.637h22.631v6.615h-113.154v-6.615h22.631v-230.488h-22.631v-6.615h105.147c30.175 0 51.599 1.555 64.272 4.665 12.627 3.157 21.494 6.94 26.6 11.351v0c11.141 9.052 16.712 23.443 16.712 43.173 0 19.73-4.874 33.819-14.623 42.267-9.749 8.495-24.604 13.555-44.566 15.181v0 1.044c18.801 2.553 31.915 8.124 39.343 16.712 7.428 8.588 11.141 22.979 11.142 43.173v0 18.453c0 12.07 0.65 20.194 1.949 24.372 1.253 4.178 3.969 6.267 8.147 6.267 4.178 0 7.497-1.927 9.958-5.78 2.414-3.807 4.665-11.861 6.755-24.163v0l5.918 0.697c-2.553 19.73-7.01 32.96-13.369 39.691-6.406 6.731-19.126 10.097-38.16 10.097-19.033 0-32.542-4.48-40.526-13.439-8.031-8.913-12.047-25.672-12.047-50.276v0-25.416c0-12.998-1.694-22.515-5.083-28.55-3.342-6.035-9.54-9.052-18.593-9.053zM181.396 6.615h-11.49v107.236h11.142c13.23 0 23.049-4.062 29.455-12.186 6.36-8.124 9.54-21.354 9.54-39.691v0-10.097c0-18.337-3.064-30.453-9.192-36.349-6.174-5.942-15.993-8.913-29.455-8.913z" fill="#ffffff" fill-rule="nonzero" stroke="none" stroke-width="1" stroke-linecap="butt" stroke-linejoin="miter" stroke-miterlimit="10" stroke-dasharray="" stroke-dashoffset="0" font-family="none" font-weight="none" font-size="none" text-anchor="none" style="mix-blend-mode: normal" data-fill-palette-color="tertiary"></path></g></g><g transform="matrix(1,0,0,1,0,97.7266378066378)"><svg viewBox="0 0 395.52 51.74672438672438" height="51.74672438672438" width="395.52"><g><svg viewBox="0 0 395.52 51.74672438672438" height="51.74672438672438" width="395.52"><g><svg viewBox="0 0 395.52 51.74672438672438" height="51.74672438672438" width="395.52"><g><svg viewBox="0 0 395.52 51.74672438672438" height="51.74672438672438" width="395.52"><g id="textblocktransform"><svg viewBox="0 0 395.52 51.74672438672438" height="51.74672438672438" width="395.52" id="textblock"><g><svg viewBox="0 0 395.52 51.74672438672438" height="51.74672438672438" width="395.52"><g transform="matrix(1,0,0,1,0,0)"><svg width="395.52" viewBox="-2.25 -40.5 416.77 55.4" height="51.74672438672438" data-palette-color="#000000"><path d="M16.4-17.7L16.4-17.7 13.75-17.7 13.75-0.95 17-0.95 17 0 0.75 0 0.75-0.95 4-0.95 4-34.05 0.75-34.05 0.75-35 15.85-35Q22.35-35 25.08-34.33 27.8-33.65 28.9-32.7L28.9-32.7Q31.3-30.75 31.3-26.5 31.3-22.25 29.2-20.43 27.1-18.6 22.8-18.25L22.8-18.25 22.8-18.1Q26.85-17.55 28.45-15.7 30.05-13.85 30.05-9.5L30.05-9.5 30.05-6.85Q30.05-4.25 30.33-3.35 30.6-2.45 31.5-2.45 32.4-2.45 32.93-3.28 33.45-4.1 33.9-6.75L33.9-6.75 34.75-6.65Q34.2-2.4 32.83-0.95 31.45 0.5 27.35 0.5 23.25 0.5 21.53-1.43 19.8-3.35 19.8-8.65L19.8-8.65 19.8-12.3Q19.8-15.1 19.07-16.4 18.35-17.7 16.4-17.7ZM15.4-34.05L13.75-34.05 13.75-18.65 15.35-18.65Q18.2-18.65 19.58-20.4 20.95-22.15 20.95-26.1L20.95-26.1 20.95-27.55Q20.95-31.5 19.63-32.77 18.3-34.05 15.4-34.05L15.4-34.05ZM48.95 0.5Q42.5 0.5 39.27-2.83 36.05-6.15 36.05-12.08 36.05-18 39.67-21.15 43.3-24.3 48.9-24.3L48.9-24.3Q60.25-24.3 59.8-12.9L59.8-12.9 45.7-12.9 45.7-10.95Q45.7-6.05 46.95-3.55 48.2-1.05 51.3-1.05L51.3-1.05Q57.1-1.05 58.9-7.25L58.9-7.25 59.8-7.1Q58.85-3.5 56.37-1.5 53.9 0.5 48.95 0.5L48.95 0.5ZM45.75-16.35L45.75-13.9 50.9-13.9 50.9-16.35Q50.9-20.4 50.42-21.88 49.95-23.35 48.52-23.35 47.1-23.35 46.42-21.78 45.75-20.2 45.75-16.35L45.75-16.35ZM63.35-23.8L84.35-23.8 84.35-22.9 72.5-0.9 73.15-0.9Q77.35-0.9 79.75-3.1 82.15-5.3 83.5-10.25L83.5-10.25 84.2-10.25 83.4 0 62.4 0 62.4-0.75 74.45-22.9 73.9-22.9Q68.85-22.9 66.87-21.25 64.9-19.6 63.35-14.2L63.35-14.2 62.7-14.2 63.35-23.8ZM99.74 0.5Q93.29 0.5 90.07-2.83 86.84-6.15 86.84-12.08 86.84-18 90.47-21.15 94.09-24.3 99.69-24.3L99.69-24.3Q111.04-24.3 110.59-12.9L110.59-12.9 96.49-12.9 96.49-10.95Q96.49-6.05 97.74-3.55 98.99-1.05 102.09-1.05L102.09-1.05Q107.89-1.05 109.69-7.25L109.69-7.25 110.59-7.1Q109.64-3.5 107.17-1.5 104.69 0.5 99.74 0.5L99.74 0.5ZM96.54-16.35L96.54-13.9 101.69-13.9 101.69-16.35Q101.69-20.4 101.22-21.88 100.74-23.35 99.32-23.35 97.89-23.35 97.22-21.78 96.54-20.2 96.54-16.35L96.54-16.35ZM130.64-13.45Q130.64-18.6 130.14-20.38 129.64-22.15 128.19-22.15 126.74-22.15 125.59-20.28 124.44-18.4 124.44-15.25L124.44-15.25 124.44-6.1Q124.44-3.95 125.29-2.45 126.14-0.95 127.79-0.95 129.44-0.95 130.04-3.15 130.64-5.35 130.64-10.85L130.64-10.85 130.64-13.45ZM112.49-23.8L124.34-23.8 124.34-19.85Q126.29-24.3 131.24-24.3L131.24-24.3Q135.54-24.3 137.92-21.2 140.29-18.1 140.29-11.8 140.29-5.5 137.72-2.5 135.14 0.5 129.99 0.5L129.99 0.5Q127.59 0.5 126.39-0.1 125.19-0.7 124.44-1.95L124.44-1.95 124.44 11 130.89 11 130.89 11.9 112.39 11.9 112.39 11 115.14 11 115.14-22.9 112.49-22.9 112.49-23.8ZM144.29-7.15L144.29-7.15 144.29-22.9 141.54-22.9 141.54-23.8 144.29-23.8 144.29-30.25 153.59-32.55 153.59-23.8 160.09-23.8 160.09-22.9 153.59-22.9 153.59-6.05Q153.59-3.7 154.06-2.6 154.54-1.5 156.04-1.5 157.54-1.5 158.66-3 159.79-4.5 160.14-7.1L160.14-7.1 160.99-7Q160.59-3.55 158.79-1.53 156.99 0.5 152.84 0.5 148.69 0.5 146.49-1.15 144.29-2.8 144.29-7.15ZM174.64 0.5Q168.19 0.5 164.96-2.83 161.74-6.15 161.74-12.08 161.74-18 165.36-21.15 168.99-24.3 174.59-24.3L174.59-24.3Q185.94-24.3 185.49-12.9L185.49-12.9 171.39-12.9 171.39-10.95Q171.39-6.05 172.64-3.55 173.89-1.05 176.99-1.05L176.99-1.05Q182.79-1.05 184.59-7.25L184.59-7.25 185.49-7.1Q184.54-3.5 182.06-1.5 179.59 0.5 174.64 0.5L174.64 0.5ZM171.44-16.35L171.44-13.9 176.59-13.9 176.59-16.35Q176.59-20.4 176.11-21.88 175.64-23.35 174.21-23.35 172.79-23.35 172.11-21.78 171.44-20.2 171.44-16.35L171.44-16.35ZM219.03-34.05L216.28-34.05 216.28 0 209.28 0 192.13-32.35 192.13-0.95 194.88-0.95 194.88 0 188.03 0 188.03-0.95 190.78-0.95 190.78-34.05 188.03-34.05 188.03-35 201.83-35 214.93-9.9 214.93-34.05 212.18-34.05 212.18-35 219.03-35 219.03-34.05ZM233.43 0.5Q226.98 0.5 223.76-2.83 220.53-6.15 220.53-12.08 220.53-18 224.16-21.15 227.78-24.3 233.38-24.3L233.38-24.3Q244.73-24.3 244.28-12.9L244.28-12.9 230.18-12.9 230.18-10.95Q230.18-6.05 231.43-3.55 232.68-1.05 235.78-1.05L235.78-1.05Q241.58-1.05 243.38-7.25L243.38-7.25 244.28-7.1Q243.33-3.5 240.86-1.5 238.38 0.5 233.43 0.5L233.43 0.5ZM230.23-16.35L230.23-13.9 235.38-13.9 235.38-16.35Q235.38-20.4 234.91-21.88 234.43-23.35 233.01-23.35 231.58-23.35 230.91-21.78 230.23-20.2 230.23-16.35L230.23-16.35ZM248.58-7.15L248.58-7.15 248.58-22.9 245.83-22.9 245.83-23.8 248.58-23.8 248.58-30.25 257.88-32.55 257.88-23.8 264.38-23.8 264.38-22.9 257.88-22.9 257.88-6.05Q257.88-3.7 258.35-2.6 258.83-1.5 260.33-1.5 261.83-1.5 262.95-3 264.08-4.5 264.43-7.1L264.43-7.1 265.28-7Q264.88-3.55 263.08-1.53 261.28 0.5 257.13 0.5 252.98 0.5 250.78-1.15 248.58-2.8 248.58-7.15ZM267.53-23.8L288.53-23.8 288.53-22.9 276.68-0.9 277.33-0.9Q281.53-0.9 283.93-3.1 286.33-5.3 287.68-10.25L287.68-10.25 288.38-10.25 287.58 0 266.58 0 266.58-0.75 278.63-22.9 278.08-22.9Q273.03-22.9 271.05-21.25 269.08-19.6 267.53-14.2L267.53-14.2 266.88-14.2 267.53-23.8ZM310.22-22.9L308.37-22.9 308.37-23.8 321.27-23.8 321.27-22.9 319.22-22.9 323.72-6.05 328.17-22.9 324.72-22.9 324.72-23.8 331.47-23.8 331.47-22.9 329.37-22.9 323.37 0 316.52 0 312.17-15.35 307.47 0 300.77 0 293.37-22.9 291.12-22.9 291.12-23.8 306.27-23.8 306.27-22.9 303.27-22.9 307.87-5.9 311.47-17.6 310.22-22.9ZM344.37 0.5Q337.92 0.5 334.7-2.83 331.47-6.15 331.47-12.08 331.47-18 335.1-21.15 338.72-24.3 344.32-24.3L344.32-24.3Q355.67-24.3 355.22-12.9L355.22-12.9 341.12-12.9 341.12-10.95Q341.12-6.05 342.37-3.55 343.62-1.05 346.72-1.05L346.72-1.05Q352.52-1.05 354.32-7.25L354.32-7.25 355.22-7.1Q354.27-3.5 351.8-1.5 349.32 0.5 344.37 0.5L344.37 0.5ZM341.17-16.35L341.17-13.9 346.32-13.9 346.32-16.35Q346.32-20.4 345.85-21.88 345.37-23.35 343.95-23.35 342.52-23.35 341.85-21.78 341.17-20.2 341.17-16.35L341.17-16.35ZM373.72-22.4L373.72-22.4Q371.87-22.4 370.47-20 369.07-17.6 369.07-14.3L369.07-14.3 369.07-0.9 372.62-0.9 372.62 0 357.02 0 357.02-0.9 359.77-0.9 359.77-22.9 357.02-22.9 357.02-23.8 369.07-23.8 369.07-19Q369.72-21.55 371.57-22.93 373.42-24.3 375.77-24.3 378.12-24.3 379.59-22.98 381.07-21.65 381.07-19.23 381.07-16.8 379.97-15.5 378.87-14.2 376.59-14.2 374.32-14.2 373.24-15.7 372.17-17.2 372.97-19.85L372.97-19.85 374.77-19.85Q376.02-22.4 373.72-22.4ZM411.52 0L397.62 0 397.62-0.9 399.92-0.9 394.27-12.5 393.32-12.25 393.32-0.9 395.62-0.9 395.62 0 381.27 0 381.27-0.9 384.02-0.9 384.02-36.6 381.07-36.6 381.07-37.5 393.32-37.5 393.32-13.25 394.12-13.55 405.37-22.9 400.67-22.9 400.67-23.8 410.52-23.8 410.52-22.9 407.02-22.9 401.07-17.85 409.72-0.9 411.52-0.9 411.52 0Z" opacity="1" transform="matrix(1,0,0,1,0,0)" fill="#ffffff" class="wordmark-text-0" data-fill-palette-color="primary" id="text-0"></path></svg></g></svg></g></svg></g></svg></g><g></g></svg></g></svg></g></svg></g></svg></g><defs></defs></svg><rect width="395.52" height="247.2" fill="none" stroke="none" visibility="hidden"></rect></g></svg></g></svg>